<?xml version="1.0" standalone="no"?>
<!DOCTYPE svg PUBLIC "-//W3C//DTD SVG 20010904//EN"
 "http://www.w3.org/TR/2001/REC-SVG-20010904/DTD/svg10.dtd">
<svg version="1.0" xmlns="http://www.w3.org/2000/svg"
 width="804.000000pt" height="188.000000pt" viewBox="0 0 804.000000 188.000000"
 preserveAspectRatio="xMidYMid meet">
<metadata>
Created by potrace 1.16, written by Peter Selinger 2001-2019
</metadata>
<g transform="translate(0.000000,188.000000) scale(0.100000,-0.100000)"
fill="#d33f8d" stroke="none">
<path d="M1035 1730 c-411 -4 -538 -8 -565 -19 -68 -26 -105 -46 -137 -75 -36
-31 -93 -110 -93 -129 0 -7 -7 -22 -15 -35 -9 -12 -22 -64 -30 -115 -33 -217
49 -420 198 -491 109 -52 141 -56 411 -56 272 -1 308 -6 375 -59 65 -50 90
-165 52 -239 -23 -45 -43 -63 -98 -91 -41 -20 -56 -21 -405 -21 -357 -1 -364
-1 -399 -23 -36 -22 -89 -77 -89 -93 0 -4 -6 -15 -14 -23 -11 -14 -46 -108
-46 -125 0 -3 233 -6 518 -6 474 0 523 2 594 19 147 36 238 141 282 323 28
115 17 239 -33 377 -20 55 -112 153 -167 176 -94 41 -207 54 -464 55 -239 0
-246 1 -290 24 -128 68 -135 257 -14 332 l39 23 378 1 c352 0 380 1 415 19 60
31 112 100 127 168 3 18 11 35 16 38 13 9 11 42 -3 46 -7 2 -251 2 -543 -1z"/>
<path d="M5215 1733 c-48 -5 -137 -36 -178 -62 -43 -27 -72 -71 -81 -121 -3
-19 -6 -239 -8 -487 -3 -545 5 -523 -117 -333 -26 41 -56 89 -65 105 -20 37
-32 55 -73 117 -18 26 -33 50 -33 53 0 4 -24 43 -54 88 -29 45 -65 102 -80
127 -15 25 -45 72 -66 105 -22 33 -43 67 -47 75 -5 9 -30 48 -57 88 -115 170
-291 258 -444 221 -41 -9 -65 -23 -96 -54 -76 -76 -76 -84 -76 -858 l0 -669
63 5 c127 10 205 51 252 134 l25 46 0 472 c0 393 2 475 14 484 11 10 19 5 38
-21 12 -18 28 -42 34 -53 23 -43 40 -71 53 -88 8 -9 19 -26 25 -36 11 -20 70
-116 96 -157 41 -64 117 -185 148 -234 19 -30 43 -67 53 -82 11 -15 19 -30 19
-33 0 -3 8 -18 19 -33 10 -15 52 -79 94 -142 106 -162 183 -220 316 -237 121
-16 197 16 259 109 l27 42 3 711 c3 678 2 713 -15 716 -10 3 -31 3 -48 2z"/>
<path d="M2520 1712 c-107 -41 -145 -80 -210 -214 -17 -35 -35 -70 -40 -78 -4
-8 -85 -170 -180 -360 -94 -190 -175 -352 -180 -360 -4 -8 -20 -40 -35 -70
-14 -30 -30 -62 -35 -70 -15 -26 -210 -422 -210 -426 0 -2 69 -4 154 -4 l154
0 42 32 c48 38 36 16 210 373 72 149 135 277 140 285 29 48 250 498 250 508 0
7 11 12 26 12 20 0 28 -8 40 -37 8 -21 44 -96 79 -168 83 -170 216 -445 299
-620 37 -77 71 -147 77 -155 5 -8 12 -22 15 -30 36 -97 111 -183 174 -200 42
-11 248 -8 268 4 6 4 1 23 -14 49 -13 23 -28 51 -33 62 -24 53 -244 504 -280
575 -5 8 -31 62 -59 120 -275 575 -323 669 -364 710 -68 68 -199 96 -288 62z"/>
<path d="M5595 1718 c-3 -7 -4 -366 -2 -798 l2 -785 560 0 c646 0 629 -2 800
83 81 40 140 123 167 235 18 74 19 109 14 496 -6 491 -11 529 -79 599 -84 87
-179 131 -360 167 -104 20 -1095 23 -1102 3z m1078 -279 c55 -28 75 -46 98
-91 18 -35 19 -64 19 -434 l0 -397 -39 -36 c-23 -21 -59 -42 -85 -49 -65 -17
-707 -17 -724 0 -9 9 -12 137 -12 513 0 276 3 505 7 508 3 4 161 7 350 7 330
0 345 -1 386 -21z"/>
<path d="M7579 1706 c-66 -25 -87 -40 -117 -82 l-22 -31 0 -729 -1 -729 54 -3
c64 -3 170 28 205 61 13 12 32 36 42 53 19 30 20 59 20 755 l1 724 -63 1 c-43
1 -80 -5 -119 -20z"/>
</g>
</svg>
